<svg xmlns="http://www.w3.org/2000/svg" width="512" height="512" viewBox="0 0 512 512" version="1.1">
	<path d="M 238 10.706 C 233.248 12.443, 229.246 18.743, 226.339 29.060 C 223.801 38.066, 223.784 71.252, 226.310 84.892 C 227.266 90.058, 227.809 94.524, 227.516 94.817 C 227.223 95.110, 221.682 95.708, 215.202 96.144 C 201.175 97.090, 191.507 99.003, 180 103.109 C 175.325 104.777, 164.975 108.461, 157 111.296 L 142.500 116.450 119.156 116.975 L 95.813 117.500 99.842 123.530 C 103.701 129.304, 113.798 139.745, 118.940 143.278 C 120.281 144.200, 121.181 145.113, 120.940 145.308 C 120.698 145.502, 117.350 147.387, 113.500 149.495 C 78.327 168.761, 52.707 197.380, 40.536 231 C 35.084 246.060, 32.895 258.186, 32.292 276.665 C 31.198 310.189, 37.505 338.841, 52.948 370.500 C 64.244 393.656, 77.282 412.101, 95.940 431.323 C 116.468 452.470, 135.356 466.205, 161.500 479.001 C 193.511 494.669, 221.686 501.302, 256 501.249 C 289.194 501.198, 318.652 494.440, 348.836 479.952 C 403.300 453.809, 445.364 408.601, 466.479 353.518 C 475.485 330.024, 478.951 312.999, 479.715 288.500 C 480.546 261.840, 476.537 240.815, 466.542 219.428 C 454.642 193.962, 437.092 174.315, 410.750 156.970 L 399 149.232 404.618 146.952 C 411.459 144.176, 419.544 138.257, 423.250 133.313 C 424.762 131.295, 426 129.341, 426 128.972 C 426 128.602, 422.379 129.349, 417.954 130.630 C 400.077 135.808, 384.502 134.522, 373.131 126.929 C 369.884 124.760, 366.031 121.419, 364.571 119.504 C 357.907 110.767, 351.387 106.432, 338.338 102.060 C 325.074 97.616, 313.865 96, 296.306 96 L 280.873 96 276.540 86.750 C 269.710 72.169, 268.488 66.149, 268.572 47.500 C 268.637 32.916, 268.886 30.748, 271.379 23 C 272.884 18.325, 274.366 13.488, 274.674 12.250 L 275.233 10 257.367 10.079 C 247.540 10.122, 238.825 10.405, 238 10.706 M 301.667 107.667 C 299.344 109.989, 302.682 116.129, 307.014 117.504 C 311.613 118.964, 313.783 112.783, 310 109 C 308.080 107.080, 303.057 106.277, 301.667 107.667 M 322.750 118.982 C 320.557 120.707, 320 121.967, 320 125.204 C 320 128.653, 320.646 129.909, 324.299 133.562 C 330.987 140.250, 337.515 140.772, 340.571 134.863 C 342.053 131.997, 342.047 131.413, 340.500 127.360 C 337.350 119.113, 328.121 114.757, 322.750 118.982 M 381.071 193.689 C 375.583 196.588, 373.490 200.251, 373.564 206.826 C 373.682 217.165, 381.004 227.335, 392 232.431 C 398.459 235.425, 403.169 235.666, 407.980 233.248 C 415.916 229.261, 418.143 220.144, 413.576 210.336 C 407.309 196.875, 390.924 188.484, 381.071 193.689 M 432 213.734 C 428.743 214.878, 427 217.380, 427.004 220.905 C 427.014 230.608, 438.565 238.276, 445.250 233.018 C 447.251 231.444, 448 229.962, 448 227.575 C 448 220.217, 438.051 211.610, 432 213.734 M 397.484 248.049 C 396.066 252.518, 403.035 257.875, 406.513 254.989 C 408.528 253.317, 408.384 251.758, 405.927 248.635 C 403.315 245.314, 398.459 244.977, 397.484 248.049" stroke="none" fill="black" fill-rule="evenodd"/>
</svg>